<?xml version="1.0" standalone="no"?>
<!DOCTYPE svg PUBLIC "-//W3C//DTD SVG 20010904//EN"
 "http://www.w3.org/TR/2001/REC-SVG-20010904/DTD/svg10.dtd">
<svg version="1.0" xmlns="http://www.w3.org/2000/svg"
 width="16.000000pt" height="16.000000pt" viewBox="0 0 16.000000 16.000000"
 preserveAspectRatio="xMidYMid meet">
<metadata>
Created by potrace 1.11, written by Peter Selinger 2001-2013
</metadata>
<g transform="translate(0.000000,16.000000) scale(0.001695,-0.001695)"
fill="#000000" stroke="none">
<path d="M7870 7496 c-183 -52 -242 -73 -465 -168 -329 -140 -551 -261 -853
-464 -92 -62 -168 -106 -190 -110 -20 -4 -82 -2 -137 5 -245 30 -507 24 -910
-20 -357 -38 -548 -72 -830 -144 -892 -229 -1643 -564 -2410 -1078 -392 -262
-772 -574 -1105 -907 -340 -339 -525 -590 -721 -977 -118 -234 -191 -439 -225
-634 -20 -120 -15 -392 10 -484 33 -120 92 -223 180 -311 71 -71 95 -88 196
-137 229 -111 463 -157 795 -157 428 0 742 75 1140 273 192 95 509 291 720
445 286 209 643 543 980 917 332 370 525 608 800 990 241 334 491 664 741 977
298 372 388 478 588 688 50 52 107 113 127 135 20 22 77 77 127 122 l90 83 62
-46 c102 -77 182 -204 209 -332 39 -184 -20 -483 -139 -710 -71 -135 -150
-241 -265 -357 -166 -165 -322 -265 -519 -330 -136 -46 -212 -52 -381 -31
-307 38 -495 -1 -495 -102 0 -29 29 -49 95 -67 83 -21 378 -21 472 1 71 17
161 14 253 -8 169 -40 357 -219 417 -398 25 -77 25 -395 -1 -520 -53 -256
-209 -562 -423 -831 -341 -428 -828 -690 -1233 -665 -266 16 -420 128 -381
274 23 86 90 148 211 193 168 63 295 155 327 237 28 74 23 175 -12 240 -48 88
-116 127 -246 142 -224 26 -448 -56 -614 -224 -127 -128 -179 -248 -178 -411
0 -150 56 -265 175 -366 91 -75 163 -112 293 -149 173 -48 317 -63 545 -57
551 16 1043 171 1452 457 118 82 352 315 437 435 116 165 200 360 236 547 23
123 30 280 15 368 -36 216 -164 426 -342 560 -138 105 -320 182 -532 225 -61
13 -104 25 -96 28 8 3 51 13 95 22 117 25 433 138 556 199 123 62 292 172 400
262 288 239 420 509 406 828 -5 132 -21 189 -79 298 -42 80 -166 203 -288 288
-115 80 -134 104 -134 168 0 76 24 105 181 218 335 241 674 407 1036 509 132
37 328 75 388 75 21 0 41 5 44 10 4 7 -77 10 -237 9 l-243 0 -115 -33z m-1782
-836 c53 -6 108 -13 122 -16 24 -5 24 -6 5 -16 -200 -109 -818 -669 -1339
-1213 -440 -459 -654 -716 -1321 -1585 -508 -662 -589 -760 -845 -1024 -332
-344 -517 -489 -800 -631 -237 -119 -411 -158 -695 -158 -201 0 -282 15 -404
74 -89 44 -208 160 -254 247 -67 127 -82 202 -82 412 0 200 9 271 66 498 119
481 500 1085 999 1582 350 350 769 655 1348 984 424 240 1032 497 1482 625
378 108 776 188 1050 211 251 21 522 25 668 10z"/>
<path d="M8570 7520 c116 -11 228 -11 235 0 4 7 -49 9 -152 8 -133 -1 -146 -2
-83 -8z"/>
<path d="M8840 7516 c3 -3 47 -14 98 -25 110 -24 246 -78 318 -125 50 -34 135
-125 147 -158 4 -10 13 -18 22 -18 12 0 15 14 15 69 l0 69 -60 56 c-35 32 -93
72 -138 93 l-77 38 -165 3 c-91 2 -162 1 -160 -2z"/>
</g>
</svg>
