<svg xmlns="http://www.w3.org/2000/svg" viewBox="0 0 38.5 41.4"><path fill="#FFF" d="M18.5 41.4c-.6 0-1.2-.1-1.8-.3L4 36.8c-3-1-4.7-4.3-3.7-7.3L7.9 6.7c.6-1.7 2-3.1 3.7-3.7L19.5.4c.6-.2 1.2-.3 1.8-.3 1.9 0 3.7.9 4.8 2.5l4.8 6.9c1 1.5 1.3 3.4.7 5.1L24 37.4c-.8 2.4-3 4-5.5 4zm2.9-40.3c-.5 0-1 .1-1.5.2l-8 2.7c-1.4.5-2.6 1.6-3 3L1.2 29.8c-.8 2.5.5 5.2 3 6.1L17 40.1c.5.2 1 .2 1.5.2 2.1 0 3.9-1.3 4.6-3.3l7.6-22.8c.5-1.4.3-3-.6-4.3L25.3 3c-.9-1.1-2.3-1.9-3.9-1.9z"/><path fill="#FFF" d="M21.6 6.3l-.7-.7c.1-.1 8.4-9.2 17.6-4.1l-.5.9c-8.5-4.7-16.3 3.8-16.4 3.9z"/></svg>