<svg xmlns="http://www.w3.org/2000/svg" viewBox="0 0 19.6 10.2"><path fill="#B3B3B3" d="M17.4 4.2c.3-.3.5-.6.7-.8C19.3 2 19.8 1.1 19.6.7l-.1-.1c0-.1-.1-.1-.3-.2-.2 0-.4-.1-.7 0h-3.3l-.1.1s-.1.1-.1.2c-.3.7-.7 1.4-1.1 2.1-.3.4-.5.7-.7 1-.2.3-.4.5-.5.6-.1.1-.3.2-.4.3-.2.2-.3.3-.3.2h-.2c-.1-.1-.2-.1-.2-.2-.1-.1-.1-.2-.1-.4V.7c0-.1-.1-.2-.1-.3 0-.1-.1-.2-.2-.2-.1-.1-.2-.1-.3-.1C10.4 0 10 0 9.4 0 8.2 0 7.3.1 7 .2c-.2.1-.3.2-.4.3-.1.1-.1.2-.1.2.5.1.7.2.9.4l.1.1c0 .1.1.2.1.4s.1.4.1.7v1.2c0 .3-.1.6-.1.8 0 .2-.1.3-.1.4-.1.1-.1.2-.2.2h-.1c0 .1-.1.1-.2.1s-.2 0-.3-.1c-.2-.1-.3-.3-.4-.4-.2-.2-.4-.4-.5-.6-.2-.3-.4-.6-.6-1L5 2.6c-.1-.1-.2-.4-.4-.7-.2-.3-.3-.6-.5-1 0-.1-.1-.2-.2-.3h-.1S3.7.5 3.6.5s-.2 0-.2-.1H.6C.3.4.1.5 0 .6v.2c0 .1 0 .2.1.3.4.9.8 1.7 1.3 2.5s.9 1.5 1.2 2c.4.5.8.9 1.1 1.4.4.4.6.7.7.8.2.1.3.2.3.3l.3.2c.2.1.4.3.7.5.3.2.7.4 1 .6.4.2.8.4 1.3.5.5.1 1 .2 1.5.2h1.2c.2 0 .4-.1.5-.2 0 0 .1-.1.1-.2v-.3c0-.3 0-.5.1-.7.1-.2.1-.4.2-.5.2-.1.2-.2.3-.2.1-.1.1-.2.2-.2h.1c.2 0 .4 0 .6.1.2.1.4.3.6.5.2.2.4.5.7.7.3.3.5.5.7.6l.2.2c.1.1.3.1.5.2s.4.1.6 0h2.6c.3 0 .5 0 .6-.1l.3-.3v-.3c0-.1 0-.2-.1-.2 0 0 0-.1-.1-.1-.3-.6-1-1.2-1.9-2-.4-.4-.7-.6-.8-.8-.2-.2-.3-.5-.1-.8-.1-.2.2-.6.8-1.3z"/></svg>