<svg xmlns="http://www.w3.org/2000/svg" xmlns:xlink="http://www.w3.org/1999/xlink" viewBox="0 0 276 269"><defs><path id="a" d="M0 0h276v269H0z"/></defs><clipPath id="b"><use xlink:href="#a" overflow="visible"/></clipPath><g clip-path="url(#b)"><path fill="#ABABAB" d="M228 200.5c10.3 15.8-15 22.2-26.2 22.5-17.5.4-32.4-14.6-42.8-27-24-28.4-24.9-70-14-103.8 10-30.7 36.3-56.5 67.9-64.4 27.3-6.8 50.3 6.3 67.2 26.9 7.1 8.7 13.1 19.1 15 30.3.9 5.2.2 10.8-1.9 15.7-3.3 7.7-9.4 11.5-16.6 15-1 .5-.3 1.9.7 1.7 7.2-1.4 12.1-2.2 17.1-7.8 3.4-3.9 5.6-8.6 6.9-13.5 2.6-10.2-.5-21-4.6-30.4-8.7-19.5-27.8-38.4-48.1-45.3-29.1-9.9-60.6 2.8-81.8 23.2-23.7 22.8-33.1 54.6-33.6 86.7-.6 35.7 15.8 71.1 46.5 90.2 11.6 7.2 26 8.8 38.7 3.4 10.4-4.5 17.3-13.2 9.7-23.4-.1-.1-.2-.1-.1 0z" opacity=".1"/><path fill="#ABABAB" d="M220.8 217.8c-25.4 9.1-44.8-9-54.7-30.7-9.6-21.2-13.1-47.9-8.2-70.7 5-23.1 31.3-47.9 56-36.6C225.5 85.1 230.1 98 229 110c-.4 4.9-2.5 10.4-6.6 13.3-4.7 3.3-10.1-.3-14.7-1.8-1.2-.4-1.7 1.1-1.1 1.9 5.8 7.6 16.7 7.1 22.5-.1 6.6-8.1 6.6-20.4 3.9-29.9-3.4-12.3-13.8-20.8-26.1-23.3-13-2.7-25.5 3.3-35.3 11.4C151 98.5 148 125.1 151 150c2.9 23.5 11.6 50.9 31.7 65.4 11.5 8.3 25.4 7.2 38 2.5.3 0 .2-.1.1-.1zM140.2 175.8c-14.3-24.1-19.4-55.3-27.7-84.4-4.2-14.6-9.1-28.9-16.4-43.3C87.8 32 73 12.7 47.9 12c-5.9-.2-13.3 1.3-20 5.6-5.4 3.5-10.5 8.8-13.2 15.9-2.1 5.4-3.4 12.9.2 21.3 3 6.8 11.7 17.7 26.8 15.4 8.1-1.2 17.4-8.9 17.7-19 .3-8.1-6.5-16.8-14.9-17.2-5.8-.2-12.6 3.8-13.6 10.7-.4 2.3 0 5 1.4 7.6.9 1.7 2.5 2.9 3.9 4.4.2.2 2.2.9 4.1.8 4.5-.4 8.3-4.4 8-8.3-.2-3.5-3.7-5.7-6.2-5.3-1.9.4-2.2 3.4-.9 2 .5-.8 5.1-1.2 6.1 2.3 1.2 4.1-3.5 7.4-4.2 7.5-3 .4-5.6-.4-7.7-2.2-6.7-5.9-1.8-15.2 4.9-17.4 10.5-3.5 19.8 10 17.1 19.1C54 66.4 40 70.1 31.8 67.6c-28.7-9-13.9-39-5-45.8 15.5-12 36-6.8 48.9 4.5C91.6 40.2 96 57.2 101 70.1c4.6 11.8 8.6 23.7 12.1 35.8 7 24.3 13.2 49.1 26.6 70.1.2.3.6 0 .5-.2z" opacity=".1"/><path opacity=".1" fill="#ABABAB" d="M161.5 168.2c-2.3-12.9-2.9-27.1-1.5-39.9 1.5-13.6 8.1-32.2 21-38.9 10.9-5.7 26.3-7.1 32.4 5.9 2.4 5.1 2.7 11.6-1.7 15.6-3.9 3.5-10.5 3.3-13.3-1-3.2-4.9.3-12.4 6.7-9.7 6.5 2.7 2.5 13.4-3.5 9.3 2.2 3 6.2 1.5 8.4-.3 3.1-2.7 3.4-4.9 2.6-8.7-1.2-5-7.5-14.6-13.6-13.2-.2 0-.2 0 0 0 3.6 1.8-2.8 4.5-5 3.7 3.8-.3 1.5 3.3-.5 4.2-1.6.7-4.5.4-6.1-.1 4.1-.7 3.1 2.9.7 4.3-2.2 1.4-5.7 1.5-8.1 1 1.4-.6 2.9-.1 3.7 1.3-1.7 4.7-7.9 7.7-12.8 7.9 3.9-1 5 1.3 2.9 4.1-1.7 2.3-5 3.7-7.7 5 1.2-1.4 3.6-.4 3.5 1.9-.1 1.7-2.9 3.8-3.8 4.5 6.2-1.7-3.2 12.6-2.8 14.6 1.3-2.3 1.9-7.6 5.8-6.9-.3.4-1.1 1.7-1 1.6 2-2.4 8.8-6.6 11.5-3.3-2.8.3-2.2 6.8-6.5 6.6.3-.1.9-.2 1.2-.3.5 2.3-3.3 6.7-5.6 6.2.2 0 1-.1 1.2-.2 1.5 3.1-4.3 10-5.7 13-1.5 3.4-3.2 8.7-1.7 12.3l-.7-.5zM117.7 123.4c-1.6-2.4-1.6-5.6-2.5-8.3-1.1-3.6-2.6-7.1-3.7-10.6-1.9-6.2-3.7-12.4-6.3-18.3-5.4-12.5-17.3-28.8-32.3-28.6-6.4.1-13.4 3.8-14.6 10.5-.8 4.7 5.5 15.5 10.7 8.8-1.9 2.5-5.6 1-7-1.2-2.1-3.1-.2-5.1 2.2-7.3 2.2 1.3 4.5-.3 5-2.6-.2.7.1 1.4.1 2 2.8.3 5.3-4 8-4.9 2.8-1 7.1.2 8.9 2.8-2.1 1.1-4.8-2.2-6.8.3.7.5 1 1.2 1.8 1.6-6.8-1.1-13.9 12-7.2 13.4.2-1.2-.4-2.2-1.5-3 3.2-8.2 9.5 5 13.3.1-1.8 1.4-.3 3 1.3 3.7 2 .9 3.1-.3 4.8-.6 3-.6 7.9-.5 8.6 3.9-2.2-.6-4.3-3.2-6.6-1.4 2.3-.2 1.2 6.4 5.1 5.6-.5.1-.8.7-1.4 1 1.3 5 8 6.1 10.6 10.2-.8-1-1.9-1.5-3-1.5-.4 2.2 3.4 5.3 4.8 6.9-1.2-.7-1.3-.2-2.2-.2 4.7 8 7.5 18.2 13.2 25.6l-3.3-7.9zM118.5 104.7c-3.2-9.6-6.5-21-1.6-30.3 5-9.5 15.5-13.4 26.1-11.3-2.3.6-5.3 1.3-6.5 3.7-1.1 2.1.8 7.6-2.9 7.4 4.2.2-2.8 5.9-4.2 6.7-3.5 2-7.6 3.2-9.4 6.9 1.6-.4 3.1-2.8 4.8-3.9 2-1.2 4.3-1.7 6.3-1.8-3.6 1.4-4.1 5.8-8 6.5.8-.1 1.7.1 2.4.1-1.2 1.4-2 3.2-3.9 3.5 3.5.6-1 4-1.8 5.6-1 2-1.6 4.9-1.1 7.1l-.2-.2z"/><g opacity=".1" fill="#ABABAB"><path d="M108 140.8c-6.7-8.3-14-15.9-22.7-22.2-.1-.1 0-.2.1-.2 5.8 3.4 11.2 7.3 16.2 11.7-7.3-9.7-15.8-18.3-27.5-22.7-.1 0 0-.2.1-.2 12.9 3.3 23.3 11.6 32.1 21.5 5.5 6.2 11.4 13.1 16.3 20.4-1.3-3.8-4.6-7-6.6-10.6-2-3.8-3-8.4-4.7-12.6-3.2-7.9-6.6-15.6-12.3-21.7-12-12.9-34.8-16.3-49.3-5.6 15.4 4.4 18.9 27.6 31.4 37 7.4 5.5 15.8 5 24 6.8 1.9.4 3.7 1.1 5.4 1.9-.9-1.4-1.7-2.5-2.5-3.5zM124.2 151.8c.5.2.9.4 1.4.6l-2.9-2.9c.5.7 1 1.5 1.5 2.3z"/></g><path opacity=".1" fill="#ABABAB" d="M271.7 62.6c-9.2-20.8-32.8-33.4-55.4-30.3-21.4 2.9-34.7 15.6-48.9 30 7.8-6 17.1-10.4 24.8-12.2 22.5-5.4 53-.2 69.4 17.2.1.1 0 .2-.1.1-16.2-15.1-46.7-19.9-67.5-12.7-5.2 1.8-10.1 4.2-14.6 7.1.1-.1.3-.1.4-.2 15.4-5.8 32-7 47.7-1.9.1 0 0 .2-.1.1-12.6-4.2-28.9-1.5-41.4 3.4 10.4-1.9 22-.4 31.4 3.3 9.4 3.7 18 9.1 27.1 12.8 9 3.7 21.9 10.6 20.2 23.1 10.1-9.4 12.4-27.4 7-39.8zM265.4 107.4c1.3 6.9-3.5 8.7-8.4 11.4-3 1.7-4.6 4.1-5.9 6.9 3.3-1.9 6.8-3.5 9-5.2.1-.1.2.1.1.1-2.5 2.9-5.6 5.1-8.5 7.6-.9.8-1.8 1.6-2.6 2.4-.3.7-.5 1.3-.8 2l.8.3c3.9-4.3 10.7-4.5 14.9-8.7 5.1-5.3 3.4-10.9 1.4-16.8zM201.6 246.2c2.3-3.8 6.4-5.2 9.8-7.6 3.8-2.6 6.3-6.1 9.3-9.4-8.1 3.1-15.6 6.1-20.7 13.6-.1.1-.2 0-.2-.1 2.8-5.7 7.1-10.5 12.9-13.3 1-.5 2.1-1.1 3.1-1.6-9.5 3.4-21.9 7.7-23.2 15.7-1.1 6.8 7.6 24.8 16.5 20.8-8-.9-11.8-11.2-7.5-18.1zM200 200c1.7-2.4 2.8-4.9 3.3-7.8-1.2 0-3.2-.5-3.5-.4 6.3-5.1 2.6-16.2 11.7-15.2-9.5-5.6-18.3-2.2-24.2 6.7 0-.5.4-1 .6-1.4 0 0-1.4-1.5-1.4-1.4-4.4 3.2-7.9 9.1-5.8 14.6-3.5-6.2-1-15.7 2.8-20.9 1.4-1.9 13.1-12.5 9.7-14.7 3.5-2.5 3.8-13 9.8-14.8 8-2.3 19.7 5.7 20.7 13.4-.1-8-9.2-14.8-15.6-17.8-25.6-12-42.4 16.5-38.4 38.4 4 22.4 20.7 39.5 44.5 38.4l.5-.5c-7.1-2.6-7.2-19.2-14.7-16.6zm-21.6-27.2c-6.8-10.7 8.6-23.3 16.5-28 .1-.1.2.1.1.2-4.4 3.8-8.8 8.3-11.1 13.7-1.9 4.6-1.8 9.6-3.7 14-.3.6-1.4.7-1.8.1zm12.9 32c-3.4-6.6-1.9-14.6 3.9-19.4.1-.1.2.1.1.1-4.2 5.8-2.3 12.6-2.9 19.2 0 .6-.9.5-1.1.1zM255.9 193.6l.8-2.3c-4.3 3.1-6.9 1.4-11.3 0-6.3-2.1-3.4 4.1.9 4.2-4.6.2-8.6-5.3-9-9.5-.4-5.4 3.8-7.5 4.6-11.8-.7-.4-1.5-.5-2.3-.4 1.5-.5 3.3-1.5 4.2-2.3 1.2-1.3.9-3.8 2.8-3.3-3.7-3.1-5.9.5-9.4.8 2.4-3.6 6.5-3.6 10.2-2.6 1.9.5 3.3 1.6 5.4 1.4 1.6-.2 4.6-1.2 2.6-2.8 3.3 1.6 2.5-2.3 4.8-2.7 2-.3 4 3.1 4.4 4.8 1.7-6.3-2.6-11.9-7.9-14.5-2.7-1.4-11.1-3.2-14.2-.6.1-.2.2-.3.3-.5-5.1.1-6.2 2.1-9.6 5.6-1.9-6.7 10.2-7.9 14.2-7.7 1.7.1 14.5 1 13.3-1.3 1.4.9 3.9 1.2 5.5.8-1-1.5-2.7-3.3-3.8-4.2-1-.9-3.4-1.9-4.5-3 6.3-.2 6.7 4.5 9.8 8.4 2 2.5 8.3 8.3 11.2 4.1-.3-.2-1-.7-1.1-.8 1.7 1.5 6.6.5 8.6-.5-4.7 1.1-5.9-2.6-7.9-5.9 3.2-.1-2.5-5.4-3.2-6.9 3.6-1.6 4.8 5.9 6.3 8 3.3 4.2 7.5 1.3 10.3-2 5.5-6.7 2.9-13.7 3.6-21.4-7.8 14.7-24.6 9.2-38.7 11.5-19.9 3.2-34.3 23-31.2 42.5 1.3 8.4 5.5 13.8 12.6 18.1 5.9 3 13.2 2.3 17.7-3.2zm9.8-54.4c2.3.6 4.1 3.4 5.5 5.1.1.2-.1.4-.3.3-1-.8-2-1.7-3-2.4s-2-1.2-2.7-2.2c-.2-.3.1-.9.5-.8zm-30.3 27.4c-.4.6-1.3.2-1-.5 2.6-6.5 10-7.6 16.2-8.1.3 0 .3.3 0 .4-6 1-11.8 2.7-15.2 8.2zM166.3 216.1c-7.9-5-14.6-11.4-21.3-18-.1-.1 0-.2.1-.1 7.1 6.9 15.4 12.9 23.9 17.9 1.5.9 3.1 1.7 4.6 2.5-5.4-3.9-10.6-7.6-15.5-12.5-5.2-5.3-10.5-10.5-15.4-15.9-7.4-8.1-16.1-14.8-27.8-14.1 4.8 0 10 6.8 13 10.2 5.7 6.2 10.4 13.1 16.8 18.9 5 4.5 10.9 7.4 17.2 9.9 2.5 1 5 2.2 7.5 3.5-1-.9-2-1.6-3.1-2.3z"/></g></svg>