<svg xmlns="http://www.w3.org/2000/svg" viewBox="0 0 178.4 89.7"><path fill="#FFF" d="M76.5 64.9s-.1-.1-.2-.1h-.4c-.2 0-.3-.1-.4-.2-.1-.2-.1-.4-.1-.7v-3.6c0-.9-.2-1.6-.6-2-.4-.4-1.1-.6-2-.6-.9 0-1.5.2-2 .5s-.7.8-.7 1.5c0 .2 0 .3.1.4.1.1.2.1.4.1.3 0 .5-.3.6-.7v-.1c0-.4.2-.7.4-.8.2-.2.6-.3 1-.3.5 0 .8.1 1.1.4.2.2.3.6.3 1.1v1.3h-1.5c-1 0-1.8.2-2.2.5-.5.4-.7.9-.7 1.7 0 .7.2 1.2.6 1.6.4.4.9.6 1.6.6.4 0 .8-.1 1.2-.2.4-.1.7-.3 1.1-.5l.1.4c0 .1.1.2.2.2h.1c.3 0 .6-.1.9-.1h.9c.2 0 .3-.1.3-.3-.1 0-.1-.1-.1-.1zM74 63.5c0 .5-.1.8-.4 1-.3.2-.7.3-1.2.3s-.8-.1-1.1-.4c-.2-.3-.4-.7-.4-1.2s.2-.9.4-1.2c.3-.3.7-.4 1.4-.4H74v1.9zM67.3 58.7c-.5-.6-1.2-.9-2.3-.9-.5 0-1 .1-1.4.3-.4.2-.8.4-1.1.8v-.7-.2h-.2-.2c-.4 0-.8.1-1.3.1h-1s-.1.1-.1.2 0 .2.1.2c0 0 .1.1.2.1h.5c.2 0 .4.1.5.2.1.1.1.4.1.7v8.1c0 .3 0 .6-.1.7-.1.1-.2.2-.4.2H60c-.2 0-.3.1-.3.3 0 .1 0 .2.1.2 0 0 .1.1.2.1h.2c.6 0 1.1-.1 1.6-.1s1 0 1.5.1h.3c.1 0 .2 0 .2-.1s.1-.1.1-.2c0-.2-.1-.2-.3-.3H63c-.2 0-.4-.1-.5-.2s-.1-.4-.1-.7v-2.9c.3.3.6.5 1 .7.4.2.8.2 1.4.2 1.1 0 1.8-.3 2.4-1 .5-.6.8-1.6.8-2.9 0-1.4-.2-2.3-.7-3zm-1.2 5.6c-.3.5-.8.7-1.6.7-.7 0-1.3-.3-1.6-.7-.3-.5-.5-1.4-.5-2.6 0-1.2.2-2.1.5-2.6s.9-.8 1.7-.8c.7 0 1.2.3 1.5.8.3.5.5 1.4.5 2.6 0 1.2-.1 2.1-.5 2.6zM117.8 65.3v-.2c0-.1-.1-.2-.2-.2h-.1l-.7-.1c-.2 0-.4-.1-.4-.2-.1-.1-.1-.4-.1-.7v-3.5c0-.6.1-1.1.2-1.3.2-.3.4-.4.8-.4.2 0 .4.1.5.2.1.1.2.3.2.5v.1c0 .4.2.6.5.6.2 0 .4-.1.5-.2.1-.1.1-.3.1-.7 0-.4-.1-.7-.4-1-.2-.2-.6-.3-1-.3-.3 0-.6.1-.9.2-.3.2-.5.4-.7.7v-.7-.2h-.1-.2c-.4 0-.7.1-1 .1h-1.2s-.1.1-.1.2c0 .2.1.2.3.2h.5c.2 0 .4.1.5.2.1.1.2.4.2.7v4.5c0 .3 0 .5-.1.7-.1.1-.2.2-.5.2l-.6.1h-.1c-.1 0-.2.1-.2.2s0 .2.1.2c0 0 .1.1.2.1h.2c.6 0 1.1-.1 1.6-.1s1.1 0 1.6.1h.2c.3.1.3.1.4 0zM56.9 61.2c-.1 0-.3-.1-.5-.1-1.1-.3-1.7-.8-1.7-1.4 0-.4.1-.7.4-1 .3-.2.6-.4 1.1-.4.2 0 .4 0 .5.1.2 0 .3.1.4.2.1.1.2.3.3.6 0 .1 0 .2.1.2l.1.5c0 .1.1.2.1.2h.4c.1 0 .2 0 .2-.1 0 0 .1-.1.1-.2v-1.7c0-.1-.2-.1-.7-.2-.4-.1-.9-.2-1.4-.2-.8 0-1.5.2-2 .6-.5.4-.8 1-.8 1.7 0 .6.2 1 .5 1.3.3.3 1 .6 2 .8.7.2 1.1.3 1.3.5.2.2.3.5.3.8 0 .4-.2.8-.5 1-.3.3-.8.4-1.4.4-.5 0-.8-.1-1-.3-.2-.2-.4-.5-.5-1l-.1-.6c0-.1-.1-.2-.1-.2h-.7s-.1.1-.1.2V65c0 .2.2.3.7.4.4.1 1 .2 1.6.2 1 0 1.7-.2 2.2-.7.5-.4.8-1 .8-1.8 0-.5-.1-.9-.4-1.1-.1-.4-.5-.6-1.2-.8zM121.8 61.6h4.5c.2 0 .4 0 .4-.1.1-.1.1-.2.1-.3 0-1.2-.2-2-.7-2.6-.5-.6-1.2-.8-2.3-.8-1.1 0-2 .3-2.6 1-.6.7-.8 1.6-.8 3 0 1.2.3 2.2.8 2.8s1.4 1 2.5 1c.9 0 1.6-.2 2.2-.7.6-.4.8-1 .8-1.6 0-.1 0-.2-.1-.3-.1-.1-.2-.1-.3-.1-.4 0-.6.1-.6.4v.2c-.1.5-.3.8-.6 1.1-.4.3-.8.4-1.3.4-.7 0-1.2-.2-1.5-.7s-.5-1.1-.5-2.1v-.4-.2zm-.1-.6c0-.9.2-1.6.5-2 .3-.4.8-.7 1.4-.7.6 0 1 .2 1.3.6.3.4.4 1 .4 1.8v.4l-3.6-.1zM80.7 61.2h-3.2v.5h3.2v-.4-.1c.1 0 0 0 0 0zM106.7 64.9l-.6-.1c-.2 0-.4-.1-.4-.2-.1-.1-.1-.4-.1-.7v-3.7c0-.9-.2-1.5-.5-1.9-.3-.4-.9-.6-1.7-.6-.6 0-1 .1-1.5.3-.4.2-.8.4-1.2.8V58v-.1h-.1-2.5s-.1.1-.1.2.1.2.3.2h.5c.2 0 .4.1.5.2.1.2.2.4.2.7v4.5c0 .3-.1.5-.1.7-.1.1-.2.2-.5.2l-.5.1h-.1c-.2 0-.2.1-.2.2s0 .2.1.2c0 0 .1.1.2.1h.2c.6 0 1.1-.1 1.6-.1s1 0 1.5.1h.3c.1 0 .2 0 .2-.1 0 0 .1-.1.1-.2s-.1-.2-.2-.2l-.6-.1c-.2 0-.4-.1-.4-.2-.1-.1-.1-.4-.1-.7V60c0-.4.2-.8.5-1.1.4-.3.8-.5 1.3-.5.6 0 1 .2 1.3.4.3.3.4.8.4 1.6v3.4c0 .3-.1.5-.1.7-.1.1-.2.2-.4.2l-.6.1h-.1c-.1 0-.2.1-.2.2s0 .2.1.2c0 0 .1.1.2.1h.2c.5 0 1-.1 1.5-.1s1 0 1.5.1h.3c.1 0 .2 0 .2-.1 0 0 .1-.1.1-.2-.3 0-.3-.1-.5-.1zM91.9 61.6h4.5c.2 0 .4 0 .4-.1.1-.1.1-.2.1-.3 0-1.2-.2-2-.7-2.6-.5-.6-1.3-.8-2.3-.8-1.1 0-2 .3-2.6 1-.6.7-.8 1.6-.8 3 0 1.2.3 2.2.8 2.8s1.4 1 2.5 1c.9 0 1.6-.2 2.2-.7.6-.4.8-1 .8-1.6 0-.1 0-.2-.1-.3-.1-.1-.2-.1-.3-.1-.4 0-.6.1-.6.4v.2c-.1.5-.3.8-.6 1.1-.3.3-.8.4-1.3.4-.7 0-1.1-.2-1.5-.7-.3-.4-.5-1.1-.5-2.1v-.4-.2zm0-.6c0-.9.2-1.6.5-2 .3-.5.8-.7 1.4-.7.6 0 1 .2 1.3.6.3.4.4 1 .4 1.8v.4l-3.6-.1zM88.8 63h-.5s-.1.1-.1.2l-.1.6c-.1.4-.3.7-.6.9-.3.2-.8.3-1.4.3-.8 0-1.4-.3-1.7-.8-.3-.5-.5-1.4-.5-2.6s.2-2.1.5-2.6c.4-.5.9-.8 1.7-.8.6 0 1 .1 1.3.2.3.2.5.5.6.9l.1.5c0 .1.1.2.1.2h.4c.1 0 .2 0 .2-.1v-1.5c0-.2-.3-.4-.8-.6-.5-.2-1.2-.3-1.9-.3-1.2 0-2.1.3-2.7 1-.6.6-.9 1.6-.9 2.9 0 1.3.3 2.3.8 2.9.6.6 1.4.9 2.6.9.8 0 1.4-.1 2-.3.6-.2.9-.4.9-.6v-1.5-.2c.2.4.1.4 0 .4zM112.1 64.6s-.1 0-.3.1c-.2.1-.4.1-.6.1-.4 0-.7-.1-.8-.4-.1-.3-.2-.8-.2-1.6v-4.4h1.4c.2 0 .3 0 .3-.1 0 0 .1-.1.1-.2s0-.2-.1-.2h-1.7v-1.1-.7-.8-.2s0-.1-.1-.1-.2.1-.5.2c-.2.1-.5.2-.7.3-.1 0-.1 0-.1.1V58h-1.2s-.1.1-.1.2 0 .2.1.2h1.2v5c0 .7.1 1.2.4 1.5.3.3.7.5 1.3.5.4 0 .8-.1 1.2-.2.4-.2.6-.3.6-.4 0-.1 0-.1-.1-.2-.1.1-.1 0-.1 0zM83.9 2.7c-.5-.9-1.5-1.6-2.8-2-1.4-.5-2.8-.7-4.5-.7-1.8 0-3.5.2-5.2.6-1.7.4-3.3.9-4.8 1.5-1.4.5-3 1.3-4.6 2.2-1.7.9-3.4 2-5.1 3.3-1.2-.2-2.5-.3-4-.3-2.6 0-5.5.3-8.5.8s-6.1 1.3-9.2 2.3c-3.1 1-6.3 2.3-9.4 3.9-3.1 1.6-6.1 3.4-9 5.5-6 4.4-10.3 8.6-12.9 12.7C1.3 36.4 0 39.9 0 42.9c0 2.8 1 4.8 3 6 2 1.1 4.6 1.7 7.8 1.7 3 0 5.9-.6 8.7-1.9 2.8-1.3 5.6-2.9 8.3-5.1 2.7-2.1 5.3-4.6 7.9-7.4 2.6-2.8 5-5.8 7.3-9 2.6-3.5 4.9-6.5 6.8-9 1.9-2.5 3.8-4.7 5.7-6.6.3-.4.7-.8 1.1-1.2l1.2-1.2c2.4 1.4 3.1 3.8 2.2 7.2-.5 2.4-1.8 4.4-3.8 6.1-2 1.7-4.1 2.8-6.2 3.1-.5-.1-.9-.1-1.4-.2-.4-.1-1-.1-1.7-.1-.5-.1-1.1 0-1.7.1-.6.1-.9.4-1.1.7-.1.3.2.6.8.7.6.1 1.3.2 1.9.1.6 0 1 0 1.3-.1.3 0 .8-.1 1.4-.3.5-.1 1.1 0 1.8.2s1.4.6 2 1.1c.6.5 1.2 1.2 1.6 2 .4.8.6 1.9.5 3.1-.1 2.1-.6 4.1-1.5 5.9-.9 1.9-2.1 3.5-3.5 4.9-1.4 1.4-2.9 2.6-4.6 3.4s-3.3 1.3-5 1.3c-.9 0-1.9-.2-2.7-.6-.9-.4-1.3-1-1.1-1.9.1-.5.4-1 .9-1.3.5-.3 1-.6 1.5-.8.6-.3 1.2-.6 1.8-1.1.6-.4.9-1.1.9-1.9 0-.8-.3-1.4-.9-1.8-.6-.4-1.3-.6-2.2-.6-1.6 0-3 .5-4.3 1.6-1.3 1.1-2 2.4-2 4.1 0 .9.3 1.7.8 2.4.5.6 1.1 1.2 1.9 1.5.8.4 1.6.6 2.6.8.9.2 1.9.3 2.8.3h.1c2.6 0 5-.4 7.4-1.1 2.3-.7 4.4-1.7 6.2-3 1.8-1.3 3.3-2.8 4.5-4.6 1.2-1.8 1.8-3.7 1.8-5.8.1-2.1-.5-3.9-2-5.5s-3.8-2.7-6.9-3.2v-.1c1.2-.2 2.5-.6 4-1.1 1.4-.5 2.8-1.2 4-2 1.2-.8 2.3-1.8 3.2-2.8.9-1.1 1.5-2.3 1.7-3.8.4-2.1.1-3.8-1.1-5.2S61.1 9 59.2 8.2c2.9-2.4 5.6-4.1 8-5.2 1.6-.7 3.2-1.3 4.8-1.7 1.7-.4 3.2-.6 4.7-.6 1.6 0 2.9.2 4 .7 1.1.4 1.9 1 2.5 1.7.1.1.2.3.3.4.1.1.2.2.4.1.3-.1.3-.4 0-.9zM54.2 9.5c-.4.3-.9.6-1.3 1-2.4 2-5.3 4.7-8.7 8.1-3.4 3.4-6.8 7.3-10.1 11.6-2 2.6-3.9 5-5.7 7.4-1.8 2.4-3.7 4.5-5.5 6.2-1.9 1.8-3.8 3.2-5.8 4.3-2 1.1-4.2 1.6-6.5 1.6-2.2 0-3.9-.6-5-1.8C4.5 46.7 4 45.1 4 43.1V43c0-1.3.2-2.9.7-4.6.5-1.7 1.3-3.5 2.4-5.5 1.1-2 2.6-4.1 4.4-6.2 1.8-2.1 4.1-4.2 6.9-6.3 2.7-2 5.5-3.8 8.5-5.3 2.9-1.5 5.9-2.8 8.8-3.8 2.9-1 5.8-1.8 8.6-2.3 2.8-.5 5.4-.8 7.9-.8 1.3 0 2.4.1 3.2.3-.3.4-.7.7-1.2 1z"/><path fill="#FFF" d="M178.3 38.6c-.1-.1-.4-.1-.7.1-.3.2-.6.4-.9.7-.7.6-1.4 1.2-2.1 1.9-.7.6-1.6 1.3-2.5 2.1-.9.7-1.8 1.4-2.6 1.8-.8.5-1.5.9-2.1 1.2-1.3.6-2.2.7-2.7.3-.5-.4-.4-1.2.3-2.3.3-.5.8-1.2 1.4-1.9.6-.7 1.3-1.5 2.1-2.5.9-1.1 1.8-2.2 2.7-3.2.8-1.1 1.3-2 1.5-2.9.2-1.8-.8-2.6-3.1-2.6-1.3 0-2.8.4-4.4 1.2-1.6.8-3 1.7-4.4 2.7-1.4 1-2.8 2.3-4.5 3.9-1.6 1.6-3.1 3.2-4.5 4.7-2 2.3-4 4.8-6 7.4-2.1 2.6-4.1 5.3-6.2 8.1l-6.8 9.1c-2.1 2.8-3.7 5-4.8 6.6-.7 1-1.5 2.1-2.3 3.2-.8 1.2-1.5 2.2-2.3 3.2-.7 1-1.4 1.9-2 2.7-.6.8-1 1.4-1.4 1.8-.6.7-1.1.9-1.3.6-.1-.1-.2-.3-.1-.6s.3-.7.7-1.4l4.5-6.9c1.3-1.9 2.6-3.8 3.8-5.6 1.3-1.8 2.7-3.8 4.2-5.9 1.5-2.1 3.4-4.7 5.6-7.7 2.4-3.3 4.9-6.6 7.4-9.8 2.5-3.3 4.8-6.3 7.1-9.3 2.3-2.9 4.4-5.6 6.4-8.1s3.7-4.6 5.2-6.3c.9-1 1.4-1.7 1.6-2 .2-.3-.3-.5-1.5-.5-.7 0-1.4.2-2.1.6-.7.4-1.3.9-1.8 1.4-1.7 1.6-3.4 3.1-5.2 4.7-1.8 1.6-3.1 2.8-4.1 3.7-.9.9-2 2-3.3 3.1-1.3 1.2-7.3 8-10.2 8.2-.3 0-.6 0-.8-.1 4.1-3.5 6.1-6.6 6.1-9.2 0-.8-.3-1.6-.8-2.3-.5-.7-1.2-1.1-1.9-1.1-.2 0-.3.1-.3.3 0 .1.1.3.2.5s.1.4.1.5c0 1.2-.1 2-.3 2.4-.7.4-1.2.7-1.5.8-.7.4-1.4 1.3-2.3 2.7-.8 1.4-1.3 2.6-1.5 3.4-3.8 3.9-7.1 5.8-9.8 5.8-1 0-1.5-.4-1.5-1.3 0-1.9 1.9-4.6 5.6-8.2 3.4-3.2 6.1-5.4 8.2-6.4.5-.3.9-.5 1.1-.6h-1.1c-3.7 0-7.8 1.6-12.5 4.7-4.7 3.2-7.6 4.7-8.7 4.7-.8 0-1.3-.2-1.5-.7.2-.3 1.6-2 4.1-5.1l3.4-4.3v-.2c-.1-.2-.6-.3-1.5-.3-2 0-4.1 1.2-6.3 3.4-.7.7-1 1.2-1.1 1.3 0 0-16.1 11.8-17.2 11.8-.3 0-.7-.2-.7-.9 0-1.1 1.7-3.7 5.2-7.8 3.4-4.1 5.2-6.3 5.2-6.4 0-.3-.3-.4-.8-.4-1.6 0-2.7.2-3.2.6-3.2 2.8-6.5 5.5-9.6 8.3-5.1 4.3-8.4 6.3-9.6 6.5-.7.1-.8-.7-.8-.8 0-.3.1-.6.2-1.1.1-.5.2-.8.2-1 0-.7-.6-1-1.7-1-1.9 0-3.1.9-3.7 2.6 0 0-.9 3.9 2.7 3.6 2-.2 4.6-1.1 7.6-3.3 1.2-.8 3.4-2.7 6.8-5.8-2.4 3.2-3.6 5.4-3.6 6.6 0 1.7.9 2.5 2.8 2.5 2.3 0 5.1-1.3 8.5-4 1.6-1.3 2.9-2.3 4-3.3l5.4-4.4c-3.7 4.9-5.6 8.3-5.6 10.1 0 1.1.5 1.7 1.6 1.7.7 0 1.8-1.1 3.4-3.1 1-1.4 2-2.7 3-4.2.5.4 1.2.6 2 .6.7 0 2.5-.7 5.5-2.1-1.2 1.8-1.8 3.6-1.8 5.2 0 2.4 1.7 3.6 5.2 3.6 3.3 0 7.4-1.4 12.2-4.3.3.2.8.3 1.6.3 1.1 0 2.6-.8 4.5-2.3 1.7-1.4 10.1-9.7 12.4-11.8-1.3 1.6-2.9 3.7-4.8 6.1-1.9 2.5-3.9 5-6 7.7s-4 5.3-5.9 7.8c-1.9 2.5-3.4 4.6-4.7 6.3-1.8 2.4-3.4 4.6-4.8 6.5-1.3 1.9-2.6 3.6-3.7 5.1-1.1 1.5-2.1 3-3 4.3-.9 1.3-1.8 2.7-2.8 4.2-1 1.6-1.9 3.1-2.7 4.6-.8 1.5-1.2 2.8-1.2 4 0 1.2.6 1.9 1.7 2.1.5.1 1.1.1 1.6-.1s1-.5 1.4-.9c.5-.4 1-1 1.7-1.8.6-.8 1.4-1.7 2.1-2.7l2.4-3.3c.8-1.2 1.7-2.4 2.5-3.6 1.6-2.2 3.4-4.8 5.6-7.8 2.2-2.9 4.4-5.9 6.7-9 1.3-1.8 2.7-3.6 4.1-5.4 1.4-1.8 2.7-3.5 4.1-5.1 1.3-1.6 2.5-3.1 3.7-4.5 1.1-1.4 2.1-2.5 2.9-3.4 2-2.2 3.8-3.9 5.5-5.2 1.7-1.3 3.4-2.4 5-3.2.4-.2.8-.4 1.3-.5.4-.1.8-.1 1 0 .4.2.4.6 0 1.3-.3.5-.9 1.3-1.8 2.2-.9.9-1.7 1.9-2.5 2.8-.9 1-1.9 2.1-2.8 3.4-.9 1.2-1.5 2.4-1.6 3.4-.1.7.1 1.4.6 2 .5.6 1.4.9 2.7.9 1.8 0 3.4-.5 5.1-1.4 1.6-.9 3-1.8 4.1-2.6l1.6-1.3 1.8-1.5c.6-.5 1.1-1 1.6-1.4.5-.4.9-.8 1.2-1.1.1-.1.3-.4.6-.7.1-.1.2-.3 0-.4z"/><path fill="#FFF" d="M80.5 32c-.4-.6-1.2-.9-2.4-.9H78c-1.3 0-2.8.3-4.3.9-1.5.6-3 1.2-4.5 2-1 .5-1.9 1.1-2.8 1.6-.9.5-1.6 1-2.2 1.4-.7.6-1.4 1-1.9 1.5-.5.4-1.2 1-1.8 1.6l-.6.6c-.2.2-.2.4-.1.5.2.2.5.1 1-.3.3-.3.7-.6 1.2-1 .4-.4.7-.7.9-.8l.1.1c-2 2.3-3 4.4-3.1 6.3-.1 2.7 1.7 4.1 5.4 4.1 3.4 0 7-1.2 11.1-3.9.2-.2-.1-.4-.3-.6-.1-.1-.4-.1-.5 0-1.8 1.2-3.4 1.9-4.7 2.3-1.6.5-2.8.7-3.4.7-1.6 0-2.3-.8-2.3-2.3 0-.7.2-1.5.6-2.3 1.2-.3 2.5-.8 4.1-1.3 1.6-.5 3.1-1.2 4.6-1.9 1.6-.8 3-1.6 4.3-2.6 1.3-1 2-2.2 2.2-3.6.1-.9-.1-1.5-.5-2.1zm-4.2 4.4c-.7.9-1.7 1.9-3 2.7-1.1.7-2.2 1.4-3.5 1.9-1.2.5-2.4.9-3.4 1.2.6-1 1.4-2.2 2.5-3.6s2-2.4 2.8-3.2c2.1-2 3.6-2.9 4.5-2.9.9 0 1.3.5 1.2 1.4 0 .7-.4 1.6-1.1 2.5z"/></svg>